<svg height="512" viewBox="0 0 60 60" width="512" xmlns="http://www.w3.org/2000/svg"><g id="Page-1" fill="none" fill-rule="evenodd"><g id="044---Screenshot-Video"><path id="Shape" d="m52 2v33h-2.29l-1.3-4.55c-.2428598-.8589063-1.0274201-1.4514128-1.92-1.45h-5.64c.1007711-.661884.1509165-1.3304895.15-2-.0019178-7.4715536-5.8706046-13.6249446-13.3336916-13.9805415-7.463087-.3555968-13.8902452 5.211929-14.6025421 12.6494521-.7122968 7.4375231 4.5413132 14.1237243 11.9362337 15.1910894v11.14h-23v-50z" fill="#3f51b5" fill-rule="nonzero"/><path id="Shape" d="m52 2v33h-2.29l-.71-2.48v-30.52z" fill="#283593" fill-rule="nonzero"/><path id="Shape" d="m41 27c.0009165.6695105-.0492289 1.338116-.15 2h-3.34c-.8925799-.0014128-1.6771402.5910937-1.92 1.45l-1.3 4.55h-5.29c-2.209139 0-4 1.790861-4 4v1.86c-7.3949205-1.0673651-12.6485305-7.7535663-11.9362337-15.1910894.7122969-7.4375231 7.1394551-13.0050489 14.6025421-12.6494521 7.463087.3555969 13.3317738 6.5089879 13.3336916 13.9805415z" fill="#f44335" fill-rule="nonzero"/><path id="Shape" d="m22 39v1.065c.9670435.3776896 1.9732995.6460245 3 .8v-1.865c0-2.209139 1.790861-4 4-4h-3c-2.209139 0-4 1.790861-4 4z" fill="#c81e1e" fill-rule="nonzero"/><path id="Shape" d="m27 13c-.501124.000841-1.0018425.0285475-1.5.083 7.109306.7661213 12.4987686 6.7665334 12.5 13.917.0009165.6695105-.0492289 1.338116-.15 2h3c.1007711-.661884.1509165-1.3304895.15-2 0-7.7319865-6.2680135-14-14-14z" fill="#c81e1e" fill-rule="nonzero"/><path id="Shape" d="m32.59 30.45-1.3 4.55h3l1.3-4.55c.2428598-.8589063 1.0274201-1.4514128 1.92-1.4500025l-3 .0000025c-.8925799-.0014128-1.6771402.5910937-1.92 1.45z" fill="#c81e1e" fill-rule="nonzero"/><path id="Shape" d="m25.01 40.86h-.01" stroke="#000" stroke-linecap="round" stroke-linejoin="round" stroke-width="2"/><g fill-rule="nonzero"><path id="Shape" d="m59 39v16c0 2.209139-1.790861 4-4 4h-26c-2.209139 0-4-1.790861-4-4v-16c0-2.209139 1.790861-4 4-4h5.29l1.3-4.55c.2428598-.8589063 1.0274201-1.4514128 1.92-1.45h8.98c.8925799-.0014128 1.6771402.5910937 1.92 1.45l1.3 4.55h5.29c2.209139 0 4 1.790861 4 4z" fill="#7f8e94"/><path id="Shape" d="m45.41 30.45 1.3 4.55h3l-1.3-4.55c-.2428598-.8589063-1.0274201-1.4514128-1.92-1.45l-3-.0000025c.8925799-.0014103 1.6771402.5910962 1.92 1.4500025z" fill="#545c60"/><path id="Shape" d="m55 35h-3c2.209139 0 4 1.790861 4 4v16c0 2.209139-1.790861 4-4 4h3c2.209139 0 4-1.790861 4-4v-16c0-2.209139-1.790861-4-4-4z" fill="#545c60"/><circle id="Oval" cx="42" cy="46" fill="#02a9f4" r="9"/><path id="Shape" d="m42 37c-.5028835.0032224-1.0046224.0483789-1.5.135 4.3297277.7267089 7.5010833 4.4747098 7.5010833 8.865s-3.1713556 8.1382911-7.5010833 8.865c3.3570875.5877651 6.7581917-.7711782 8.7859125-3.5104942 2.0277208-2.7393161 2.334161-6.389019.7916126-9.4281058-1.5425485-3.0390868-4.6694296-4.9461397-8.0775251-4.9264z" fill="#0377bc"/><path id="Shape" d="m23 31.345v-8.69c.0282726-.6338647.3987599-1.2022954.967264-1.4840522s1.2452101-.2323264 1.766736.1290522l6.525 4.344c.4614839.2956291.74062.8059453.74062 1.354s-.2791361 1.0583709-.74062 1.354l-6.525 4.348c-.5215259.3613786-1.1982319.410809-1.766736.1290522s-.9389914-.8501875-.967264-1.4840522z" fill="#f5f5f5"/><path id="Shape" d="m37 47c-.5522847 0-1-.4477153-1-1 .0033074-3.3123376 2.6876624-5.9966926 6-6 .5522847 0 1 .4477153 1 1s-.4477153 1-1 1c-2.209139 0-4 1.790861-4 4 0 .5522847-.4477153 1-1 1z" fill="#f5f5f5"/><path id="Shape" d="m20 1c-.5522847 0-1 .44771525-1 1s.4477153 1 1 1h2c.5522847 0 1-.44771525 1-1s-.4477153-1-1-1z" fill="#000"/><path id="Shape" d="m14 1c-.5522847 0-1 .44771525-1 1s.4477153 1 1 1h2c.5522847 0 1-.44771525 1-1s-.4477153-1-1-1z" fill="#000"/><path id="Shape" d="m8 3h2c.5522847 0 1-.44771525 1-1s-.4477153-1-1-1h-2c-.55228475 0-1 .44771525-1 1s.44771525 1 1 1z" fill="#000"/><path id="Shape" d="m25 2c0 .55228475.4477153 1 1 1h2c.5522847 0 1-.44771525 1-1s-.4477153-1-1-1h-2c-.5522847 0-1 .44771525-1 1z" fill="#000"/><path id="Shape" d="m32 1c-.5522847 0-1 .44771525-1 1s.4477153 1 1 1h2c.5522847 0 1-.44771525 1-1s-.4477153-1-1-1z" fill="#000"/><path id="Shape" d="m38 1c-.5522847 0-1 .44771525-1 1s.4477153 1 1 1h2c.5522847 0 1-.44771525 1-1s-.4477153-1-1-1z" fill="#000"/><path id="Shape" d="m43 2c0 .55228475.4477153 1 1 1h2c.5522847 0 1-.44771525 1-1s-.4477153-1-1-1h-2c-.5522847 0-1 .44771525-1 1z" fill="#000"/><path id="Shape" d="m3 20c0-.5522847-.44771525-1-1-1s-1 .4477153-1 1v2c0 .5522847.44771525 1 1 1s1-.4477153 1-1z" fill="#000"/><path id="Shape" d="m3 8c0-.55228475-.44771525-1-1-1s-1 .44771525-1 1v2c0 .5522847.44771525 1 1 1s1-.4477153 1-1z" fill="#000"/><path id="Shape" d="m21 53c.5522847 0 1-.4477153 1-1s-.4477153-1-1-1h-1c-.5522847 0-1 .4477153-1 1s.4477153 1 1 1z" fill="#000"/><path id="Shape" d="m16 53c.5522847 0 1-.4477153 1-1s-.4477153-1-1-1h-2c-.5522847 0-1 .4477153-1 1s.4477153 1 1 1z" fill="#000"/><path id="Shape" d="m8 53h2c.5522847 0 1-.4477153 1-1s-.4477153-1-1-1h-2c-.55228475 0-1 .4477153-1 1s.44771525 1 1 1z" fill="#000"/><path id="Shape" d="m1 53c0 .5522847.44771525 1 1 1s1-.4477153 1-1h1c.55228475 0 1-.4477153 1-1s-.44771525-1-1-1h-1v-1c0-.5522847-.44771525-1-1-1s-1 .4477153-1 1v1c-.55228475 0-1 .4477153-1 1s.44771525 1 1 1z" fill="#000"/><path id="Shape" d="m3 3h1c.55228475 0 1-.44771525 1-1s-.44771525-1-1-1h-1c0-.55228475-.44771525-1-1-1s-1 .44771525-1 1c-.55228475 0-1 .44771525-1 1s.44771525 1 1 1v1c0 .55228475.44771525 1 1 1s1-.44771525 1-1z" fill="#000"/><path id="Shape" d="m3 26c0-.5522847-.44771525-1-1-1s-1 .4477153-1 1v2c0 .5522847.44771525 1 1 1s1-.4477153 1-1z" fill="#000"/><path id="Shape" d="m3 32c0-.5522847-.44771525-1-1-1s-1 .4477153-1 1v2c0 .5522847.44771525 1 1 1s1-.4477153 1-1z" fill="#000"/><path id="Shape" d="m3 38c0-.5522847-.44771525-1-1-1s-1 .4477153-1 1v2c0 .5522847.44771525 1 1 1s1-.4477153 1-1z" fill="#000"/><path id="Shape" d="m2 43c-.55228475 0-1 .4477153-1 1v2c0 .5522847.44771525 1 1 1s1-.4477153 1-1v-2c0-.5522847-.44771525-1-1-1z" fill="#000"/><path id="Shape" d="m53 20c0-.5522847-.4477153-1-1-1s-1 .4477153-1 1v2c0 .5522847.4477153 1 1 1s1-.4477153 1-1z" fill="#000"/><path id="Shape" d="m53 8c0-.55228475-.4477153-1-1-1s-1 .44771525-1 1v2c0 .5522847.4477153 1 1 1s1-.4477153 1-1z" fill="#000"/><path id="Shape" d="m3 14c0-.5522847-.44771525-1-1-1s-1 .4477153-1 1v2c0 .5522847.44771525 1 1 1s1-.4477153 1-1z" fill="#000"/><path id="Shape" d="m53 14c0-.5522847-.4477153-1-1-1s-1 .4477153-1 1v2c0 .5522847.4477153 1 1 1s1-.4477153 1-1z" fill="#000"/><path id="Shape" d="m53 3c.5522847 0 1-.44771525 1-1s-.4477153-1-1-1c0-.55228475-.4477153-1-1-1s-1 .44771525-1 1h-1c-.5522847 0-1 .44771525-1 1s.4477153 1 1 1h1v1c0 .55228475.4477153 1 1 1s1-.44771525 1-1z" fill="#000"/><path id="Shape" d="m52 25c-.5522847 0-1 .4477153-1 1v2c0 .5522847.4477153 1 1 1s1-.4477153 1-1v-2c0-.5522847-.4477153-1-1-1z" fill="#000"/><path id="Shape" d="m42 36c-5.5228475 0-10 4.4771525-10 10s4.4771525 10 10 10 10-4.4771525 10-10c-.0060624-5.5203344-4.4796656-9.9939376-10-10zm0 18c-4.418278 0-8-3.581722-8-8s3.581722-8 8-8 8 3.581722 8 8c-.0049599 4.4162219-3.5837781 7.9950401-8 8z" fill="#000"/><path id="Shape" d="m26.288 33.53 6.524-4.343c.7404472-.4807884 1.1872582-1.3036525 1.1872582-2.1865s-.446811-1.7057116-1.1872582-2.1865l-6.524-4.344c-.8603289-.5721919-1.9658545-.6240855-2.876-.135-.8682904.447568-1.4133578 1.3431461-1.412 2.32v8.69c-.0013578.9768539.5437096 1.872432 1.412 2.32.9101455.4890855 2.0156711.4371919 2.876-.135zm-1.933-1.63c-.2136643-.1030962-.3509955-.317797-.355-.555v-8.69c.0032531-.237928.1406987-.4535821.355-.557.1204861-.0640571.2545542-.0983456.391-.1.1544992.0002737.3053528.0469581.433.134l6.526 4.345c.182797.1099608.2945945.3076784.2945945.521s-.1117975.4110392-.2945945.521l-6.526 4.345c-.2468363.1635752-.5638384.1774248-.824.036z" fill="#000"/><path id="Shape" d="m55 34h-4.531l-1.093-3.825c-.3723936-1.2849272-1.5472049-2.1706168-2.885-2.175h-4.528c.023-.331.037-.664.037-1 .0062833-7.8953029-6.1087738-14.4439168-13.9860195-14.9776267-7.8772458-.5337098-14.8197432 5.1302109-15.878495 12.9542055-1.0587519 7.8239946 4.1287272 15.1293576 11.8645145 16.7084212v13.315c.0033061 2.7600532 2.2399468 4.9966939 5 5h26c2.7600532-.0033061 4.9966939-2.2399468 5-5v-16c-.0033061-2.7600532-2.2399468-4.9966939-5-5zm-41-7c0-7.1797017 5.8202983-13 13-13s13 5.8202983 13 13c0 .337-.016.67-.042 1h-2.449c-1.3380731.0045128-2.5129732.8906766-2.885 2.176l-1.093 3.824h-4.531c-2.7600532.0033061-4.9966939 2.2399468-5 5v.65c-5.8454128-1.4158248-9.9717433-6.6356329-10-12.65zm44 28c0 1.6568542-1.3431458 3-3 3h-26c-1.6568542 0-3-1.3431458-3-3v-14.115c0-.009 0-.016 0-.025s0-.017 0-.026v-1.834c0-1.6568542 1.3431458-3 3-3h5.286c.4464878-.0003258.8386624-.2965993.961-.726l1.3-4.548c.1224392-.4297572.5151414-.7261208.962-.726h8.982c.4465788-.0002482.8391909.2956393.962.725l1.3 4.549c.1223376.4294007.5145122.7256742.961.726h5.286c1.6568542 0 3 1.3431458 3 3z" fill="#000"/><path id="Shape" d="m55 38c-.5522847 0-1 .4477153-1 1v1c0 .5522847.4477153 1 1 1s1-.4477153 1-1v-1c0-.5522847-.4477153-1-1-1z" fill="#000"/><path id="Shape" d="m40 34h4c.5522847 0 1-.4477153 1-1s-.4477153-1-1-1h-4c-.5522847 0-1 .4477153-1 1s.4477153 1 1 1z" fill="#000"/></g></g></g></svg>